<svg width="376" height="291" viewBox="0 0 376 291" fill="none" xmlns="http://www.w3.org/2000/svg">
<g clip-path="url(#clip0_5_288)">
<path d="M340.324 278.411H35.6754C30.341 278.411 25.0746 277.213 20.2639 274.905C15.4532 272.597 11.2209 269.238 7.87858 265.075C4.53627 260.912 2.16913 256.051 0.951483 250.851C-0.266168 245.651 -0.303307 240.243 0.842793 235.027L14.4505 173.095H361.549L375.157 235.027C376.303 240.243 376.266 245.651 375.048 250.851C373.831 256.051 371.463 260.912 368.121 265.075C364.779 269.238 360.547 272.597 355.736 274.905C350.925 277.213 345.659 278.411 340.324 278.411ZM15.2875 174.138L1.85976 235.251C0.747154 240.315 0.783235 245.565 1.96535 250.613C3.14746 255.662 5.4455 260.38 8.69022 264.421C11.9349 268.463 16.0437 271.724 20.7139 273.964C25.3841 276.205 30.4967 277.368 35.6754 277.368H340.324C345.503 277.368 350.616 276.205 355.286 273.964C359.956 271.724 364.065 268.463 367.31 264.421C370.554 260.38 372.852 255.662 374.034 250.613C375.216 245.565 375.253 240.315 374.14 235.251L360.712 174.138H15.2875Z" fill="#F2F2F2"/>
<path d="M301.641 40.8637L317.622 38.4791L315.097 27.3484L305.517 32.1796L285.751 24.7206C285.469 23.9926 284.982 23.3623 284.349 22.9067C283.716 22.451 282.964 22.1896 282.185 22.1545C281.406 22.1193 280.633 22.3118 279.962 22.7086C279.29 23.1053 278.749 23.6891 278.403 24.3888C278.057 25.0886 277.922 25.8739 278.014 26.6492C278.106 27.4245 278.421 28.1562 278.922 28.755C279.422 29.3539 280.085 29.7941 280.831 30.0219C281.577 30.2497 282.373 30.2553 283.122 30.038L301.641 40.8637Z" fill="#FFB6B6"/>
<path d="M334.121 32.5428C332.886 37.2324 304.417 42.5221 304.431 41.5076C304.472 38.6242 306.302 32.574 305.257 31.0044C304.659 30.1068 312.709 27.8132 312.709 27.8132C312.709 27.8132 317.153 26.1007 322.913 24.0108C324.531 23.3896 326.279 23.1884 327.995 23.4259C329.711 23.6633 331.339 24.3316 332.728 25.3686C332.728 25.3686 335.357 27.8532 334.121 32.5428Z" fill="#FF8540"/>
<path d="M58.7171 227.836H48.8239C46.6144 227.836 44.4953 228.715 42.9329 230.279C41.3705 231.844 40.4928 233.966 40.4928 236.178C40.4928 238.39 41.3705 240.512 42.9329 242.077C44.4953 243.641 46.6144 244.52 48.8239 244.52H58.7171C60.9266 244.52 63.0457 243.641 64.6081 242.077C66.1705 240.512 67.0482 238.39 67.0482 236.178C67.0482 233.966 66.1705 231.844 64.6081 230.279C63.0457 228.715 60.9266 227.836 58.7171 227.836Z" fill="#E6E6E6"/>
<path d="M90.4795 227.836H80.5863C78.3767 227.836 76.2577 228.715 74.6953 230.279C73.1329 231.844 72.2552 233.966 72.2552 236.178C72.2552 238.39 73.1329 240.512 74.6953 242.077C76.2577 243.641 78.3767 244.52 80.5863 244.52H90.4795C92.689 244.52 94.8081 243.641 96.3705 242.077C97.9329 240.512 98.8106 238.39 98.8106 236.178C98.8106 233.966 97.9329 231.844 96.3705 230.279C94.8081 228.715 92.689 227.836 90.4795 227.836Z" fill="#E6E6E6"/>
<path d="M122.242 227.836H112.349C110.139 227.836 108.02 228.715 106.458 230.279C104.895 231.844 104.018 233.966 104.018 236.178C104.018 238.39 104.895 240.512 106.458 242.077C108.02 243.641 110.139 244.52 112.349 244.52H122.242C124.451 244.52 126.57 243.641 128.133 242.077C129.695 240.512 130.573 238.39 130.573 236.178C130.573 233.966 129.695 231.844 128.133 230.279C126.57 228.715 124.451 227.836 122.242 227.836Z" fill="#E6E6E6"/>
<path d="M154.004 227.836H144.111C141.901 227.836 139.782 228.715 138.22 230.279C136.658 231.844 135.78 233.966 135.78 236.178C135.78 238.39 136.658 240.512 138.22 242.077C139.782 243.641 141.901 244.52 144.111 244.52H154.004C156.214 244.52 158.333 243.641 159.895 242.077C161.458 240.512 162.335 238.39 162.335 236.178C162.335 233.966 161.458 231.844 159.895 230.279C158.333 228.715 156.214 227.836 154.004 227.836Z" fill="#E6E6E6"/>
<path d="M185.767 227.836H175.873C173.664 227.836 171.545 228.715 169.982 230.279C168.42 231.844 167.542 233.966 167.542 236.178C167.542 238.39 168.42 240.512 169.982 242.077C171.545 243.641 173.664 244.52 175.873 244.52H185.767C187.976 244.52 190.095 243.641 191.658 242.077C193.22 240.512 194.098 238.39 194.098 236.178C194.098 233.966 193.22 231.844 191.658 230.279C190.095 228.715 187.976 227.836 185.767 227.836Z" fill="#E6E6E6"/>
<path d="M217.529 227.836H207.636C205.426 227.836 203.307 228.715 201.745 230.279C200.182 231.844 199.305 233.966 199.305 236.178C199.305 238.39 200.182 240.512 201.745 242.077C203.307 243.641 205.426 244.52 207.636 244.52H217.529C219.738 244.52 221.858 243.641 223.42 242.077C224.982 240.512 225.86 238.39 225.86 236.178C225.86 233.966 224.982 231.844 223.42 230.279C221.858 228.715 219.738 227.836 217.529 227.836Z" fill="#E6E6E6"/>
<path d="M249.291 227.836H239.398C237.189 227.836 235.069 228.715 233.507 230.279C231.945 231.844 231.067 233.966 231.067 236.178C231.067 238.39 231.945 240.512 233.507 242.077C235.069 243.641 237.189 244.52 239.398 244.52H249.291C251.501 244.52 253.62 243.641 255.182 242.077C256.745 240.512 257.622 238.39 257.622 236.178C257.622 233.966 256.745 231.844 255.182 230.279C253.62 228.715 251.501 227.836 249.291 227.836Z" fill="#E6E6E6"/>
<path d="M281.054 227.836H271.16C268.951 227.836 266.832 228.715 265.269 230.279C263.707 231.844 262.829 233.966 262.829 236.178C262.829 238.39 263.707 240.512 265.269 242.077C266.832 243.641 268.951 244.52 271.16 244.52H281.054C283.263 244.52 285.382 243.641 286.945 242.077C288.507 240.512 289.385 238.39 289.385 236.178C289.385 233.966 288.507 231.844 286.945 230.279C285.382 228.715 283.263 227.836 281.054 227.836Z" fill="#E6E6E6"/>
<path d="M312.816 227.836H302.923C300.713 227.836 298.594 228.715 297.032 230.279C295.469 231.844 294.592 233.966 294.592 236.178C294.592 238.39 295.469 240.512 297.032 242.077C298.594 243.641 300.713 244.52 302.923 244.52H312.816C315.025 244.52 317.145 243.641 318.707 242.077C320.269 240.512 321.147 238.39 321.147 236.178C321.147 233.966 320.269 231.844 318.707 230.279C317.145 228.715 315.025 227.836 312.816 227.836Z" fill="#E6E6E6"/>
<path d="M58.7171 192.905H48.8239C46.6144 192.905 44.4953 193.784 42.9329 195.348C41.3705 196.912 40.4928 199.034 40.4928 201.247C40.4928 203.459 41.3705 205.581 42.9329 207.145C44.4953 208.71 46.6144 209.588 48.8239 209.588H58.7171C60.9266 209.588 63.0457 208.71 64.6081 207.145C66.1705 205.581 67.0482 203.459 67.0482 201.247C67.0482 199.034 66.1705 196.912 64.6081 195.348C63.0457 193.784 60.9266 192.905 58.7171 192.905Z" fill="#E6E6E6"/>
<path d="M90.4795 192.905H80.5863C78.3767 192.905 76.2577 193.784 74.6953 195.348C73.1329 196.912 72.2552 199.034 72.2552 201.247C72.2552 203.459 73.1329 205.581 74.6953 207.145C76.2577 208.71 78.3767 209.588 80.5863 209.588H90.4795C92.689 209.588 94.8081 208.71 96.3705 207.145C97.9329 205.581 98.8106 203.459 98.8106 201.247C98.8106 199.034 97.9329 196.912 96.3705 195.348C94.8081 193.784 92.689 192.905 90.4795 192.905Z" fill="#E6E6E6"/>
<path d="M122.242 192.905H112.349C110.139 192.905 108.02 193.784 106.458 195.348C104.895 196.912 104.018 199.034 104.018 201.247C104.018 203.459 104.895 205.581 106.458 207.145C108.02 208.71 110.139 209.588 112.349 209.588H122.242C124.451 209.588 126.57 208.71 128.133 207.145C129.695 205.581 130.573 203.459 130.573 201.247C130.573 199.034 129.695 196.912 128.133 195.348C126.57 193.784 124.451 192.905 122.242 192.905Z" fill="#FF8540"/>
<path d="M154.004 192.905H144.111C141.901 192.905 139.782 193.784 138.22 195.348C136.658 196.912 135.78 199.034 135.78 201.247C135.78 203.459 136.658 205.581 138.22 207.145C139.782 208.71 141.901 209.588 144.111 209.588H154.004C156.214 209.588 158.333 208.71 159.895 207.145C161.458 205.581 162.335 203.459 162.335 201.247C162.335 199.034 161.458 196.912 159.895 195.348C158.333 193.784 156.214 192.905 154.004 192.905Z" fill="#E6E6E6"/>
<path d="M185.767 192.905H175.873C173.664 192.905 171.545 193.784 169.982 195.348C168.42 196.912 167.542 199.034 167.542 201.247C167.542 203.459 168.42 205.581 169.982 207.145C171.545 208.71 173.664 209.588 175.873 209.588H185.767C187.976 209.588 190.095 208.71 191.658 207.145C193.22 205.581 194.098 203.459 194.098 201.247C194.098 199.034 193.22 196.912 191.658 195.348C190.095 193.784 187.976 192.905 185.767 192.905Z" fill="#E6E6E6"/>
<path d="M217.529 192.905H207.636C205.426 192.905 203.307 193.784 201.745 195.348C200.182 196.912 199.305 199.034 199.305 201.247C199.305 203.459 200.182 205.581 201.745 207.145C203.307 208.71 205.426 209.588 207.636 209.588H217.529C219.738 209.588 221.858 208.71 223.42 207.145C224.982 205.581 225.86 203.459 225.86 201.247C225.86 199.034 224.982 196.912 223.42 195.348C221.858 193.784 219.738 192.905 217.529 192.905Z" fill="#E6E6E6"/>
<path d="M249.291 192.905H239.398C237.189 192.905 235.069 193.784 233.507 195.348C231.945 196.912 231.067 199.034 231.067 201.247C231.067 203.459 231.945 205.581 233.507 207.145C235.069 208.71 237.189 209.588 239.398 209.588H249.291C251.501 209.588 253.62 208.71 255.182 207.145C256.745 205.581 257.622 203.459 257.622 201.247C257.622 199.034 256.745 196.912 255.182 195.348C253.62 193.784 251.501 192.905 249.291 192.905Z" fill="#E6E6E6"/>
<path d="M281.054 192.905H271.16C268.951 192.905 266.832 193.784 265.269 195.348C263.707 196.912 262.829 199.034 262.829 201.247C262.829 203.459 263.707 205.581 265.269 207.145C266.832 208.71 268.951 209.588 271.16 209.588H281.054C283.263 209.588 285.382 208.71 286.945 207.145C288.507 205.581 289.385 203.459 289.385 201.247C289.385 199.034 288.507 196.912 286.945 195.348C285.382 193.784 283.263 192.905 281.054 192.905Z" fill="#E6E6E6"/>
<path d="M312.816 192.905H302.923C300.713 192.905 298.594 193.784 297.032 195.348C295.469 196.912 294.592 199.034 294.592 201.247C294.592 203.459 295.469 205.581 297.032 207.145C298.594 208.71 300.713 209.588 302.923 209.588H312.816C315.025 209.588 317.145 208.71 318.707 207.145C320.269 205.581 321.147 203.459 321.147 201.247C321.147 199.034 320.269 196.912 318.707 195.348C317.145 193.784 315.025 192.905 312.816 192.905Z" fill="#E6E6E6"/>
<path d="M73.5569 210.892H63.6637C61.4541 210.892 59.3351 211.771 57.7727 213.335C56.2103 214.9 55.3326 217.021 55.3326 219.234C55.3326 221.446 56.2103 223.568 57.7727 225.132C59.3351 226.697 61.4541 227.576 63.6637 227.576H73.5569C75.7664 227.576 77.8855 226.697 79.4479 225.132C81.0103 223.568 81.888 221.446 81.888 219.234C81.888 217.021 81.0103 214.9 79.4479 213.335C77.8855 211.771 75.7664 210.892 73.5569 210.892Z" fill="#E6E6E6"/>
<path d="M105.319 210.892H95.4261C93.2165 210.892 91.0975 211.771 89.5351 213.335C87.9727 214.9 87.095 217.021 87.095 219.234C87.095 221.446 87.9727 223.568 89.5351 225.132C91.0975 226.697 93.2165 227.576 95.4261 227.576H105.319C107.529 227.576 109.648 226.697 111.21 225.132C112.773 223.568 113.65 221.446 113.65 219.234C113.65 217.021 112.773 214.9 111.21 213.335C109.648 211.771 107.529 210.892 105.319 210.892Z" fill="#E6E6E6"/>
<path d="M137.082 210.892H127.188C124.979 210.892 122.86 211.771 121.297 213.335C119.735 214.9 118.857 217.021 118.857 219.234C118.857 221.446 119.735 223.568 121.297 225.132C122.86 226.697 124.979 227.576 127.188 227.576H137.082C139.291 227.576 141.41 226.697 142.973 225.132C144.535 223.568 145.413 221.446 145.413 219.234C145.413 217.021 144.535 214.9 142.973 213.335C141.41 211.771 139.291 210.892 137.082 210.892Z" fill="#E6E6E6"/>
<path d="M168.844 210.892H158.951C156.741 210.892 154.622 211.771 153.06 213.335C151.497 214.9 150.62 217.021 150.62 219.234C150.62 221.446 151.497 223.568 153.06 225.132C154.622 226.697 156.741 227.576 158.951 227.576H168.844C171.054 227.576 173.173 226.697 174.735 225.132C176.297 223.568 177.175 221.446 177.175 219.234C177.175 217.021 176.297 214.9 174.735 213.335C173.173 211.771 171.054 210.892 168.844 210.892Z" fill="#E6E6E6"/>
<path d="M200.606 210.892H190.713C188.504 210.892 186.385 211.771 184.822 213.335C183.26 214.9 182.382 217.021 182.382 219.234C182.382 221.446 183.26 223.568 184.822 225.132C186.385 226.697 188.504 227.576 190.713 227.576H200.606C202.816 227.576 204.935 226.697 206.497 225.132C208.06 223.568 208.937 221.446 208.937 219.234C208.937 217.021 208.06 214.9 206.497 213.335C204.935 211.771 202.816 210.892 200.606 210.892Z" fill="#E6E6E6"/>
<path d="M232.369 210.892H222.476C220.266 210.892 218.147 211.771 216.585 213.335C215.022 214.9 214.144 217.021 214.144 219.234C214.144 221.446 215.022 223.568 216.585 225.132C218.147 226.697 220.266 227.576 222.476 227.576H232.369C234.578 227.576 236.697 226.697 238.26 225.132C239.822 223.568 240.7 221.446 240.7 219.234C240.7 217.021 239.822 214.9 238.26 213.335C236.697 211.771 234.578 210.892 232.369 210.892Z" fill="#E6E6E6"/>
<path d="M264.131 210.892H254.238C252.028 210.892 249.909 211.771 248.347 213.335C246.784 214.9 245.907 217.021 245.907 219.234C245.907 221.446 246.784 223.568 248.347 225.132C249.909 226.697 252.028 227.576 254.238 227.576H264.131C266.341 227.576 268.46 226.697 270.022 225.132C271.584 223.568 272.462 221.446 272.462 219.234C272.462 217.021 271.584 214.9 270.022 213.335C268.46 211.771 266.341 210.892 264.131 210.892Z" fill="#E6E6E6"/>
<path d="M295.893 210.892H286C283.791 210.892 281.672 211.771 280.109 213.335C278.547 214.9 277.669 217.021 277.669 219.234C277.669 221.446 278.547 223.568 280.109 225.132C281.672 226.697 283.791 227.576 286 227.576H295.893C298.103 227.576 300.222 226.697 301.784 225.132C303.347 223.568 304.224 221.446 304.224 219.234C304.224 217.021 303.347 214.9 301.784 213.335C300.222 211.771 298.103 210.892 295.893 210.892Z" fill="#E6E6E6"/>
<path d="M327.656 210.892H317.763C315.553 210.892 313.434 211.771 311.872 213.335C310.309 214.9 309.431 217.021 309.431 219.234C309.431 221.446 310.309 223.568 311.872 225.132C313.434 226.697 315.553 227.576 317.763 227.576H327.656C329.865 227.576 331.984 226.697 333.547 225.132C335.109 223.568 335.987 221.446 335.987 219.234C335.987 217.021 335.109 214.9 333.547 213.335C331.984 211.771 329.865 210.892 327.656 210.892Z" fill="#E6E6E6"/>
<path d="M291.015 173.614H85.4642C82.2038 173.611 79.0779 172.312 76.7724 170.004C74.4669 167.695 73.1701 164.565 73.1664 161.301L73.1799 161.183C80.4518 129.678 80.449 90.1828 73.1712 36.8886L73.1664 36.8178C73.1701 33.5532 74.4669 30.4233 76.7724 28.1149C79.0779 25.8064 82.2038 24.5079 85.4642 24.5042H291.015C294.276 24.5079 297.402 25.8064 299.707 28.1149C302.013 30.4233 303.31 33.5532 303.313 36.8179L303.302 36.9268C294.507 77.8804 294.507 120.238 303.302 161.192L303.313 161.301C303.31 164.565 302.013 167.695 299.707 170.004C297.402 172.312 294.276 173.611 291.015 173.614Z" fill="white"/>
<path d="M291.015 173.614H85.4642C82.2038 173.611 79.0779 172.312 76.7724 170.004C74.4669 167.695 73.1701 164.565 73.1664 161.301L73.1799 161.183C80.4518 129.678 80.449 90.1828 73.1712 36.8886L73.1664 36.8178C73.1701 33.5532 74.4669 30.4233 76.7724 28.1149C79.0779 25.8064 82.2038 24.5079 85.4642 24.5042H291.015C294.276 24.5079 297.402 25.8064 299.707 28.1149C302.013 30.4233 303.31 33.5532 303.313 36.8179L303.302 36.9268C294.507 77.8804 294.507 120.238 303.302 161.192L303.313 161.301C303.31 164.565 302.013 167.695 299.707 170.004C297.402 172.312 294.276 173.611 291.015 173.614ZM74.208 161.359C74.2269 164.337 75.4207 167.187 77.5292 169.287C79.6378 171.388 82.49 172.568 85.4642 172.572H291.015C293.99 172.568 296.843 171.387 298.952 169.286C301.061 167.185 302.254 164.334 302.272 161.355C293.461 120.293 293.461 77.8255 302.272 36.7633C302.254 33.7846 301.061 30.9338 298.952 28.8326C296.843 26.7314 293.99 25.5503 291.015 25.5469H85.4642C82.4859 25.5503 79.6301 26.734 77.5209 28.8394C75.4116 30.9448 74.2205 33.8006 74.2078 36.7827C81.4937 90.1541 81.4942 129.745 74.208 161.359Z" fill="#E6E6E6"/>
<path d="M269.468 61.2604H103.367C102.469 61.2604 101.608 60.9034 100.973 60.2678C100.339 59.6323 99.9821 58.7703 99.9821 57.8715C99.9821 56.9728 100.339 56.1108 100.973 55.4752C101.608 54.8397 102.469 54.4827 103.367 54.4827H269.468C270.366 54.4827 271.227 54.8397 271.861 55.4752C272.496 56.1108 272.853 56.9728 272.853 57.8715C272.853 58.7703 272.496 59.6323 271.861 60.2678C271.227 60.9034 270.366 61.2604 269.468 61.2604Z" fill="#E6E6E6"/>
<path d="M269.468 77.6833H103.367C102.469 77.6833 101.608 77.3262 100.973 76.6907C100.339 76.0551 99.9821 75.1932 99.9821 74.2944C99.9821 73.3956 100.339 72.5336 100.973 71.8981C101.608 71.2626 102.469 70.9055 103.367 70.9055H269.468C270.366 70.9055 271.227 71.2626 271.861 71.8981C272.496 72.5336 272.853 73.3956 272.853 74.2944C272.853 75.1932 272.496 76.0551 271.861 76.6907C271.227 77.3262 270.366 77.6833 269.468 77.6833Z" fill="#E6E6E6"/>
<path d="M269.468 94.1064H103.367C102.469 94.1064 101.608 93.7493 100.973 93.1138C100.339 92.4782 99.9821 91.6163 99.9821 90.7175C99.9821 89.8187 100.339 88.9567 100.973 88.3212C101.608 87.6857 102.469 87.3286 103.367 87.3286H269.468C270.366 87.3286 271.227 87.6857 271.861 88.3212C272.496 88.9567 272.853 89.8187 272.853 90.7175C272.853 91.6163 272.496 92.4782 271.861 93.1138C271.227 93.7493 270.366 94.1064 269.468 94.1064Z" fill="#E6E6E6"/>
<path d="M269.468 110.529H103.367C102.469 110.529 101.608 110.172 100.973 109.537C100.339 108.901 99.9821 108.039 99.9821 107.14C99.9821 106.242 100.339 105.38 100.973 104.744C101.608 104.109 102.469 103.751 103.367 103.751H269.468C270.366 103.751 271.227 104.109 271.861 104.744C272.496 105.38 272.853 106.242 272.853 107.14C272.853 108.039 272.496 108.901 271.861 109.537C271.227 110.172 270.366 110.529 269.468 110.529Z" fill="#E6E6E6"/>
<path d="M269.468 126.952H103.367C102.469 126.952 101.608 126.595 100.973 125.96C100.339 125.324 99.9821 124.462 99.9821 123.563C99.9821 122.665 100.339 121.803 100.973 121.167C101.608 120.532 102.469 120.175 103.367 120.175H269.468C270.366 120.175 271.227 120.532 271.861 121.167C272.496 121.803 272.853 122.665 272.853 123.563C272.853 124.462 272.496 125.324 271.861 125.96C271.227 126.595 270.366 126.952 269.468 126.952Z" fill="#E6E6E6"/>
<path d="M177.826 143.375H103.367C102.469 143.375 101.608 143.018 100.973 142.383C100.339 141.747 99.9821 140.885 99.9821 139.986C99.9821 139.087 100.339 138.226 100.973 137.59C101.608 136.954 102.469 136.597 103.367 136.597H177.826C178.724 136.597 179.584 136.954 180.219 137.59C180.854 138.226 181.21 139.087 181.21 139.986C181.21 140.885 180.854 141.747 180.219 142.383C179.584 143.018 178.724 143.375 177.826 143.375Z" fill="#FF8540"/>
<path d="M187.293 169.183H173.587C173.379 169.181 173.174 169.132 172.987 169.04C172.801 168.948 172.638 168.815 172.509 168.651C172.358 168.458 172.252 168.234 172.198 167.995C172.144 167.756 172.143 167.508 172.197 167.268L178.647 138.048C178.698 137.72 178.863 137.421 179.113 137.203C179.364 136.986 179.683 136.863 180.014 136.858C180.345 136.853 180.668 136.966 180.925 137.176C181.181 137.386 181.356 137.68 181.417 138.006L188.673 167.226C188.734 167.467 188.74 167.72 188.689 167.964C188.639 168.208 188.534 168.438 188.383 168.635C188.255 168.804 188.09 168.941 187.901 169.036C187.713 169.131 187.504 169.181 187.293 169.183Z" fill="#E6E6E6"/>
<path d="M359.548 180.132H16.9314C15.0671 180.132 13.2792 179.39 11.9609 178.07C10.6426 176.75 9.90204 174.96 9.90204 173.093C9.90204 171.226 10.6426 169.436 11.9609 168.116C13.2792 166.796 15.0671 166.055 16.9314 166.055H359.548C361.413 166.055 363.201 166.796 364.519 168.116C365.837 169.436 366.578 171.226 366.578 173.093C366.578 174.96 365.837 176.75 364.519 178.07C363.201 179.39 361.413 180.132 359.548 180.132Z" fill="#F2F2F2"/>
<path d="M316.162 162.506L311.162 162.505L308.784 143.196L316.163 143.197L316.162 162.506Z" fill="#FFB6B6"/>
<path d="M317.437 167.358L301.316 167.357V167.153C301.317 165.487 301.978 163.889 303.154 162.711C304.331 161.533 305.927 160.871 307.591 160.871L310.536 158.634L316.03 160.871L317.437 160.871L317.437 167.358Z" fill="#2F2E41"/>
<path d="M361.336 155.997L356.862 158.23L346.13 142.011L352.735 138.716L361.336 155.997Z" fill="#FFB6B6"/>
<path d="M364.639 159.77L350.211 166.97L350.12 166.788C349.378 165.296 349.258 163.571 349.786 161.991C350.314 160.411 351.448 159.106 352.937 158.362L354.576 155.045L360.49 154.593L361.749 153.965L364.639 159.77Z" fill="#2F2E41"/>
<path d="M313.947 74.8118L341.515 75.7779L343.576 79.611C343.576 79.611 345.735 95.2933 344.63 96.4004C343.524 97.5075 342.971 97.5075 343.524 99.4449C344.077 101.382 345.506 119.894 345.506 119.894C345.506 119.894 356.894 143.546 357.447 144.93C358 146.314 358.553 145.761 358 146.314C357.51 146.843 357.049 147.397 356.618 147.975H347.608C347.608 147.975 342.756 135.721 338.315 130.982C334.394 126.797 331.91 121.467 331.227 115.769L327.492 98.061L319.475 125.185C319.475 125.185 318.093 152.033 318.37 153.416L318.646 154.8L308.026 154.919C308.026 154.919 306.92 152.586 307.473 151.756C308.026 150.925 307.993 151.152 307.318 149.793C306.644 148.434 306.92 146.132 306.92 146.132C306.92 146.132 310.906 91.6952 310.906 90.8648C310.927 90.4376 310.848 90.0113 310.677 89.6197V88.4926L311.735 84.499L313.947 74.8118Z" fill="#2F2E41"/>
<path d="M325.833 24.7285C324.039 25.7966 322.965 27.7592 322.349 29.7564C321.208 33.4538 320.522 37.2766 320.304 41.1403L319.653 52.7076C319.329 60.1727 317.255 67.4566 313.599 73.9707C313.328 74.4666 313.173 75.0179 313.147 75.5827C313.121 76.1475 313.224 76.7109 313.447 77.2299C313.671 77.749 314.011 78.21 314.439 78.578C314.868 78.946 315.375 79.2113 315.921 79.3535C325.913 81.9787 344.837 78.6827 344.837 78.6827C344.837 78.6827 345.643 78.4137 344.837 77.6066C344.031 76.7995 342.223 72.7641 342.223 72.7641L344.372 58.6262L347.059 30.1091C343.835 26.0736 337.351 23.6948 337.351 23.6948L335.675 20.675L327.298 21.3461L325.833 24.7285Z" fill="#FF8540"/>
<path d="M331.151 18.9201C335.595 18.9201 339.198 15.3125 339.198 10.8622C339.198 6.41196 335.595 2.80432 331.151 2.80432C326.706 2.80432 323.103 6.41196 323.103 10.8622C323.103 15.3125 326.706 18.9201 331.151 18.9201Z" fill="#FFB8B8"/>
<path d="M341.067 10.3837C340.707 12.0164 340.059 13.5714 339.153 14.9754C338.912 15.4541 338.553 15.8628 338.109 16.1623C337.884 16.3067 337.616 16.3676 337.351 16.3345C337.086 16.3013 336.841 16.1762 336.659 15.9808L336.463 15.8211C336.847 15.5842 337.19 15.2863 337.478 14.9391C337.621 14.7648 337.72 14.559 337.767 14.3387C337.814 14.1183 337.808 13.8899 337.75 13.6723C337.68 13.4577 337.53 13.2785 337.332 13.1722C337.133 13.0659 336.901 13.0409 336.684 13.1024C336.213 13.2876 335.926 13.97 335.433 13.8647C335.035 13.7776 334.951 13.2513 334.951 12.8375C334.966 10.6741 333.922 7.59973 333.113 7.6941C332.297 7.73881 331.479 7.62922 330.703 7.37105C329.925 7.11244 329.105 7.00765 328.288 7.06251C328.23 7.06978 328.172 7.08067 328.111 7.09155C327.98 6.68053 327.799 6.28687 327.574 5.91914C327.599 6.36304 327.578 6.80838 327.509 7.24763C326.859 7.51597 326.187 7.72847 325.501 7.88284C324.754 7.98811 323.112 10.224 323.035 9.99536C322.904 9.58434 322.724 9.19068 322.499 8.82296C322.524 9.26685 322.502 9.71219 322.434 10.1514C322.43 10.1696 322.43 10.1841 322.426 10.2023C322.064 9.71948 321.843 9.13148 321.966 9.58157C320.752 6.83022 321.223 4.85926 323.133 2.53984C323.506 2.04112 323.998 1.6452 324.565 1.38919C324.849 1.26432 325.16 1.21476 325.469 1.24528C325.778 1.2758 326.073 1.38537 326.327 1.56343C327.106 0.848125 328.062 0.354475 329.096 0.133651C330.13 -0.0871738 331.204 -0.0271429 332.207 0.307524C334.197 1.00082 335.731 1.40735 336.035 3.4981C336.865 3.40717 337.705 3.55317 338.456 3.91925C339.207 4.28532 339.839 4.85655 340.28 5.56705C341.138 7.01645 341.419 8.73625 341.067 10.3837Z" fill="#2F2E41"/>
<path d="M349.655 62.7455L349.668 46.5679L338.301 47.4177L341.652 57.6209L331.356 76.0883C330.595 76.2593 329.9 76.6482 329.356 77.2077C328.812 77.7671 328.443 78.4729 328.293 79.2391C328.143 80.0052 328.218 80.7985 328.511 81.5223C328.803 82.2461 329.299 82.8691 329.939 83.3154C330.579 83.7616 331.335 84.0118 332.114 84.0354C332.893 84.0591 333.663 83.8551 334.328 83.4485C334.994 83.0419 335.527 82.4501 335.863 81.7453C336.198 81.0406 336.322 80.2533 336.218 79.4794L349.655 62.7455Z" fill="#FFB6B6"/>
<path d="M346.25 29.3495C350.699 31.2679 351.705 60.2427 350.705 60.0783C347.863 59.611 342.158 56.9015 340.453 57.7042C339.478 58.1632 338.406 49.8515 338.406 49.8515C338.406 49.8515 337.373 45.1978 336.162 39.1839C335.789 37.4901 335.849 35.729 336.338 34.0648C336.827 32.4006 337.728 30.8873 338.958 29.6657C338.958 29.6657 341.802 27.4311 346.25 29.3495Z" fill="#FF8540"/>
<path d="M71.511 208.124C71.2164 207.855 70.9844 207.524 70.8312 207.155C70.6781 206.787 70.6075 206.389 70.6245 205.99C70.6414 205.591 70.7456 205.201 70.9295 204.846C71.1135 204.492 71.3728 204.183 71.6891 203.94L68.6349 194.728L73.4998 196.036L75.6542 204.583C76.0269 205.143 76.1817 205.819 76.0893 206.485C75.997 207.151 75.6639 207.76 75.1532 208.196C74.6425 208.633 73.9896 208.866 73.3183 208.853C72.6471 208.84 72.004 208.58 71.511 208.124Z" fill="#FFB6B6"/>
<path d="M80.328 158.075C81.1352 158.538 85.9111 157.39 86.8438 157.717C86.3289 160.862 89.1253 159.682 86.0886 163.813C83.0519 167.943 76.9356 180.329 75.5462 184.958C74.1567 189.587 75.5319 196.11 75.3238 198.304C75.2233 199.575 75.2295 200.853 75.3426 202.123C73.7019 202.102 72.0847 202.443 70.4184 202.225C68.6413 197.19 67.4465 190.024 66.6352 186.063C65.8238 182.102 65.7942 183.777 66.1663 181.797C66.5384 179.816 66.6285 181.256 66.2376 179.361C65.8467 177.466 67.4276 175.086 68.8883 173.728C69.5181 171.915 70.332 170.223 70.9555 168.429C75.5245 164.438 75.8249 162.132 80.328 158.075Z" fill="#3F3D56"/>
<path d="M123.094 202.284C122.699 202.341 122.297 202.31 121.916 202.194C121.534 202.078 121.182 201.88 120.886 201.613C120.589 201.347 120.354 201.018 120.198 200.651C120.041 200.283 119.968 199.886 119.981 199.487L110.937 195.993L115.038 193.064L122.998 196.831C123.666 196.899 124.286 197.209 124.741 197.704C125.195 198.198 125.453 198.843 125.465 199.515C125.477 200.187 125.242 200.84 124.805 201.351C124.368 201.861 123.759 202.193 123.094 202.284Z" fill="#FFB6B6"/>
<path d="M90.1085 163.658C90.9788 163.329 93.129 158.907 93.9737 158.394C96.0717 160.791 96.939 157.879 98.194 162.852C99.4489 167.825 105.111 180.425 107.797 184.441C110.483 188.457 116.387 191.54 117.946 193.096C118.863 193.981 119.851 194.788 120.903 195.508C119.844 196.763 119.079 198.23 117.852 199.38C112.84 197.553 106.555 193.922 102.986 192.032C99.416 190.142 100.689 191.229 99.3981 189.683C98.1076 188.136 99.2745 188.981 97.5652 188.079C95.8559 187.177 95.0252 184.442 94.907 182.45C93.9088 180.811 93.1221 179.107 92.1345 177.484C91.9614 171.415 90.3748 169.718 90.1085 163.658Z" fill="#3F3D56"/>
<path d="M96.9132 191.023L101.427 211.19L72.5051 209.388L80.3697 189.582L96.9132 191.023Z" fill="#FFB6B6"/>
<path d="M92.0973 284.1L95.3459 284.1L96.8914 271.553H92.0968L92.0973 284.1Z" fill="#FFB6B6"/>
<path d="M90.9971 282.495L96.1327 282.188V284.392L101.015 287.768C101.256 287.935 101.438 288.174 101.534 288.452C101.629 288.729 101.634 289.03 101.546 289.31C101.459 289.59 101.285 289.835 101.049 290.009C100.813 290.183 100.527 290.277 100.234 290.277H94.1202L93.0663 288.097L92.6548 290.277H90.3495L90.9971 282.495Z" fill="#2F2E41"/>
<path d="M61.3925 282.482L64.5671 283.171L68.7343 271.238L64.0485 270.22L61.3925 282.482Z" fill="#FFB6B6"/>
<path d="M60.6569 280.68L65.7407 281.47L65.2742 283.623L69.3309 287.959C69.5313 288.173 69.6581 288.446 69.6927 288.737C69.7274 289.029 69.6681 289.324 69.5236 289.579C69.379 289.834 69.1567 290.037 68.8892 290.156C68.6217 290.276 68.3229 290.307 68.0365 290.245L62.0614 288.947L61.4929 286.594L60.6294 288.636L58.3765 288.147L60.6569 280.68Z" fill="#2F2E41"/>
<path d="M102.165 228.053C99.8848 240.6 99.3148 246.017 99.3148 246.017C99.3148 246.017 101.025 248.013 99.8848 249.154C98.7448 250.296 99.8848 252.576 99.8848 252.576L97.3214 280.235L95.258 279.901L90.2872 279.1L88.4944 278.81L89.6344 252.863C89.6344 252.863 88.4944 250.58 89.0644 250.009C89.6344 249.438 88.4944 246.017 88.4944 246.017L87.071 218.928L78.2409 248.584C78.2409 248.584 79.0974 249.725 78.2409 250.58C77.3874 251.434 75.6806 255.713 75.6806 255.713L70.4297 274.11L69.9838 275.673L67.2453 275.159L64.2648 274.598L63.717 274.496L62.7426 274.311L62.1153 274.193L61.902 274.155L60.8702 273.96L61.1823 272.574L61.3447 271.843L65.7869 252.088L65.8888 251.632L65.997 251.15C65.997 251.15 65.427 249.725 66.2804 248.867C66.5301 248.606 66.7125 248.288 66.8118 247.94C66.9111 247.592 66.9244 247.226 66.8505 246.872C66.8225 246.842 66.7969 246.81 66.774 246.776C66.6732 246.637 66.6037 246.478 66.5702 246.31C66.5307 246.042 66.5622 245.769 66.6617 245.517C66.7612 245.265 66.9251 245.044 67.137 244.876C67.2993 244.703 67.4356 244.507 67.5414 244.295C68.4076 242.653 68.8438 239.175 68.8438 239.175C68.8438 239.175 69.6145 211.623 72.1365 207.415C72.2702 207.195 74.9475 202.971 75.0876 202.885C77.9344 201.176 100.114 203.536 100.114 203.536C100.114 203.536 101.457 207.15 101.518 207.526C101.845 209.64 104.098 217.41 102.165 228.053Z" fill="#2F2E41"/>
<path d="M95.4256 161.69C95.4256 161.69 95.9055 159.195 91.294 154.578C88.8526 153.763 84.6225 154.238 83.156 154.578C76.3743 163.541 77.5886 161.96 75.8233 166.968C75.3572 168.094 75.1907 169.322 75.3401 170.533C76.1539 174.607 77.4751 195.521 77.2038 196.607C76.9325 197.694 75.0337 199.052 76.9325 199.052C78.8314 199.052 103.319 198.623 102.776 197.808C102.234 196.993 95.4256 161.69 95.4256 161.69Z" fill="#3F3D56"/>
<path d="M87.7769 153.011C92.0725 153.011 95.5548 149.525 95.5548 145.223C95.5548 140.922 92.0725 137.436 87.7769 137.436C83.4813 137.436 79.999 140.922 79.999 145.223C79.999 149.525 83.4813 153.011 87.7769 153.011Z" fill="#FFB6B6"/>
<path d="M81.1873 148.168C81.1448 149.112 80.5535 149.927 80.0972 150.754C79.3012 152.229 78.8765 153.877 78.8599 155.554C78.8432 157.231 79.2351 158.887 80.0015 160.378C80.6364 161.584 81.5155 162.66 82.0192 163.926C82.2617 164.461 82.3845 165.042 82.379 165.63C82.3736 166.217 82.24 166.796 81.9877 167.326C80.6244 166.013 79.9591 166.706 78.411 165.56C79.0198 167.268 78.5008 167.324 79.112 169.03C76.4845 169.782 73.856 170.535 71.2266 171.29C72.8409 169.978 73.981 168.172 74.4721 166.149C74.9631 164.126 74.7781 161.998 73.9454 160.09C72.9842 158.026 71.2661 156.325 70.6407 154.132C70.3002 152.946 70.3064 151.686 70.6584 150.503C71.0103 149.319 71.6935 148.262 72.6269 147.455C73.5604 146.648 74.7051 146.125 75.9257 145.95C77.1463 145.774 78.3917 145.951 79.5146 146.462C80.3986 146.209 81.2301 147.238 81.1873 148.168Z" fill="#2F2E41"/>
<path d="M90.9566 136.494C89.9106 134.206 87.1509 134.672 84.6555 134.973C83.4095 135.166 82.2291 135.66 81.2166 136.412C80.2041 137.164 79.3901 138.153 78.845 139.291C77.7785 141.598 77.5746 144.212 78.2704 146.657C78.6437 148.322 79.5346 149.826 80.8151 150.952C82.1329 152.013 88.328 154.523 88.8437 152.362C88.199 155.181 86.5216 156.786 88.4414 158.947C89.4358 155.956 93.6408 153.115 94.6352 150.124C94.7849 149.674 94.1702 144.383 94.3198 143.933C94.6354 142.984 94.9513 142.033 95.1793 141.059C95.4657 139.836 95.5759 138.433 94.817 137.432C94.0581 136.432 92.1463 136.393 91.7628 137.589" fill="#2F2E41"/>
<path d="M89.7044 146.019L89.3719 143.899C89.5979 141.264 89.2291 137.071 90.9566 136.495L92.0131 137.552C91.3448 137.776 90.0738 141.717 89.7044 146.019Z" fill="#FF6584"/>
<path d="M165.471 290.38C165.471 290.461 165.455 290.542 165.424 290.617C165.393 290.693 165.348 290.761 165.29 290.819C165.232 290.877 165.164 290.922 165.089 290.953C165.013 290.985 164.933 291 164.851 291H18.9059C18.7415 291 18.5839 290.935 18.4677 290.818C18.3515 290.702 18.2863 290.544 18.2863 290.38C18.2863 290.215 18.3515 290.057 18.4677 289.941C18.5839 289.825 18.7415 289.759 18.9059 289.759H164.851C164.933 289.759 165.013 289.775 165.089 289.806C165.164 289.837 165.232 289.883 165.29 289.94C165.348 289.998 165.393 290.067 165.424 290.142C165.455 290.217 165.471 290.298 165.471 290.38Z" fill="#CCCCCC"/>
<path d="M241.871 251.822H134.608C132.399 251.822 130.28 252.7 128.717 254.265C127.155 255.829 126.277 257.951 126.277 260.163C126.277 262.376 127.155 264.498 128.717 266.062C130.28 267.626 132.399 268.505 134.608 268.505H241.871C244.081 268.505 246.2 267.626 247.762 266.062C249.325 264.498 250.202 262.376 250.202 260.163C250.202 257.951 249.325 255.829 247.762 254.265C246.2 252.7 244.081 251.822 241.871 251.822Z" fill="#E6E6E6"/>
</g>
<defs>
<clipPath id="clip0_5_288">
<rect width="376" height="291" fill="white"/>
</clipPath>
</defs>
</svg>
