<svg width="456" height="362" viewBox="0 0 456 362" fill="none" xmlns="http://www.w3.org/2000/svg">
<g clip-path="url(#clip0_5_225)">
<path d="M228.48 308.016C197.584 308.016 167.643 297.392 143.76 277.952C119.876 258.513 103.528 231.463 97.5006 201.41C91.473 171.356 96.139 140.16 110.704 113.137C125.268 86.1129 148.83 64.9336 177.375 53.2075C205.92 41.4814 237.681 39.9339 267.247 48.8289C296.814 57.7238 322.355 76.5107 339.521 101.988C356.686 127.466 364.412 158.059 361.384 188.553C358.356 219.047 344.759 247.557 322.912 269.224C310.54 281.561 295.824 291.342 279.614 298.001C263.405 304.66 246.025 308.064 228.48 308.016ZM228.48 44.1436C155.409 44.1436 95.9608 103.102 95.9608 175.571C95.9608 248.04 155.409 306.998 228.48 306.998C301.552 306.998 361 248.04 361 175.571C361 103.102 301.552 44.1436 228.48 44.1436Z" fill="#CCCCCC"/>
<path d="M278.068 327.878V194.447H177.932V327.878H278.068Z" fill="#2F2E41"/>
<path d="M295.27 190.373H160.73V243.338H295.27V190.373Z" fill="#3F3D56"/>
<path d="M295.27 249.449H160.73V302.414H295.27V249.449Z" fill="#3F3D56"/>
<path d="M295.27 308.526H160.73V361.491H295.27V308.526Z" fill="#3F3D56"/>
<path d="M295.27 212.83H160.73V220.979H295.27V212.83Z" fill="#FF8540"/>
<path d="M295.27 271.907H160.73V280.055H295.27V271.907Z" fill="#FF8540"/>
<path d="M295.27 330.983H160.73V339.132H295.27V330.983Z" fill="#FF8540"/>
<path d="M269.081 201.068C270.783 201.068 272.162 199.7 272.162 198.012C272.162 196.324 270.783 194.956 269.081 194.956C267.379 194.956 266 196.324 266 198.012C266 199.7 267.379 201.068 269.081 201.068Z" fill="#FF8540"/>
<path d="M279.865 201.068C281.566 201.068 282.946 199.7 282.946 198.012C282.946 196.324 281.566 194.956 279.865 194.956C278.163 194.956 276.784 196.324 276.784 198.012C276.784 199.7 278.163 201.068 279.865 201.068Z" fill="#FF8540"/>
<path d="M290.649 201.068C292.35 201.068 293.73 199.7 293.73 198.012C293.73 196.324 292.35 194.956 290.649 194.956C288.947 194.956 287.568 196.324 287.568 198.012C287.568 199.7 288.947 201.068 290.649 201.068Z" fill="#FF8540"/>
<path d="M269.081 259.126C270.783 259.126 272.162 257.757 272.162 256.07C272.162 254.382 270.783 253.014 269.081 253.014C267.379 253.014 266 254.382 266 256.07C266 257.757 267.379 259.126 269.081 259.126Z" fill="#FF8540"/>
<path d="M279.865 259.126C281.566 259.126 282.946 257.757 282.946 256.07C282.946 254.382 281.566 253.014 279.865 253.014C278.163 253.014 276.784 254.382 276.784 256.07C276.784 257.757 278.163 259.126 279.865 259.126Z" fill="#FF8540"/>
<path d="M290.649 259.126C292.35 259.126 293.73 257.757 293.73 256.07C293.73 254.382 292.35 253.014 290.649 253.014C288.947 253.014 287.568 254.382 287.568 256.07C287.568 257.757 288.947 259.126 290.649 259.126Z" fill="#FF8540"/>
<path d="M269.081 317.184C270.783 317.184 272.162 315.816 272.162 314.128C272.162 312.44 270.783 311.072 269.081 311.072C267.379 311.072 266 312.44 266 314.128C266 315.816 267.379 317.184 269.081 317.184Z" fill="#FF8540"/>
<path d="M279.865 317.184C281.566 317.184 282.946 315.816 282.946 314.128C282.946 312.44 281.566 311.072 279.865 311.072C278.163 311.072 276.784 312.44 276.784 314.128C276.784 315.816 278.163 317.184 279.865 317.184Z" fill="#FF8540"/>
<path d="M290.649 317.184C292.35 317.184 293.73 315.816 293.73 314.128C293.73 312.44 292.35 311.072 290.649 311.072C288.947 311.072 287.568 312.44 287.568 314.128C287.568 315.816 288.947 317.184 290.649 317.184Z" fill="#FF8540"/>
<path d="M456 360.981H0V362H456V360.981Z" fill="#3F3D56"/>
<path d="M124.208 138.048V232.77C124.208 234.752 123.414 236.652 122.001 238.053C120.588 239.454 118.672 240.242 116.674 240.242H79.5576C77.559 240.242 75.6421 239.455 74.2286 238.054C72.8151 236.653 72.0206 234.752 72.0201 232.77V138.048C72.0206 136.066 72.8151 134.165 74.2286 132.764C75.6421 131.363 77.559 130.575 79.5576 130.576H84.06C83.839 131.115 83.7548 131.7 83.815 132.279C83.8752 132.858 84.0779 133.413 84.4052 133.896C84.7326 134.379 85.1746 134.775 85.6924 135.049C86.2102 135.323 86.7879 135.467 87.3748 135.468H108.536C109.123 135.467 109.701 135.323 110.218 135.049C110.736 134.775 111.178 134.379 111.505 133.896C111.833 133.413 112.036 132.858 112.096 132.279C112.156 131.7 112.072 131.115 111.851 130.576H116.674C118.672 130.576 120.588 131.363 122.001 132.765C123.414 134.166 124.208 136.066 124.208 138.048Z" fill="#E6E6E6"/>
<path d="M121.736 148.664H74.4924V213.852H121.736V148.664Z" fill="white"/>
<path d="M106.762 193.49H87.9061V194.558H106.762V193.49Z" fill="#E6E6E6"/>
<path d="M117.064 197.413H87.8872V198.482H117.064V197.413Z" fill="#FF8540"/>
<path d="M110.784 201.11H87.8872V202.178H110.784V201.11Z" fill="#E6E6E6"/>
<path d="M101.356 204.806H87.8872V205.875H101.356V204.806Z" fill="#E6E6E6"/>
<path d="M108.09 208.503H87.8872V209.572H108.09V208.503Z" fill="#E6E6E6"/>
<path d="M81.5099 193.182H79.3549V195.319H81.5099V193.182Z" fill="#E6E6E6"/>
<path d="M81.5099 196.879H79.3549V199.016H81.5099V196.879Z" fill="#FF8540"/>
<path d="M81.5099 200.575H79.3549V202.713H81.5099V200.575Z" fill="#E6E6E6"/>
<path d="M81.5099 204.272H79.3549V206.409H81.5099V204.272Z" fill="#E6E6E6"/>
<path d="M81.5099 207.969H79.3549V210.106H81.5099V207.969Z" fill="#E6E6E6"/>
<path d="M107.709 156.812H88.7099V175.655H107.709V156.812Z" fill="#E6E6E6"/>
<path d="M291.159 0.0710449H164.895V80.2699H291.159V0.0710449Z" fill="#E6E6E6"/>
<path d="M279.099 22.5078H174.413V61.7403H279.099V22.5078Z" fill="white"/>
<path d="M218.611 29.3049H193.486V30.7288H218.611V29.3049Z" fill="#E6E6E6"/>
<path d="M232.337 34.533H193.461V35.9568H232.337V34.533Z" fill="#FF8540"/>
<path d="M223.97 39.4585H193.461V40.8824H223.97V39.4585Z" fill="#E6E6E6"/>
<path d="M211.407 44.384H193.461V45.8079H211.407V44.384Z" fill="#E6E6E6"/>
<path d="M220.38 49.3096H193.461V50.7334H220.38V49.3096Z" fill="#E6E6E6"/>
<path d="M184.964 28.8954H182.092V31.7431H184.964V28.8954Z" fill="#E6E6E6"/>
<path d="M184.964 33.821H182.092V36.6688H184.964V33.821Z" fill="#FF8540"/>
<path d="M184.964 38.7466H182.092V41.5943H184.964V38.7466Z" fill="#E6E6E6"/>
<path d="M184.964 43.6721H182.092V46.5198H184.964V43.6721Z" fill="#E6E6E6"/>
<path d="M184.964 48.5977H182.092V51.4454H184.964V48.5977Z" fill="#E6E6E6"/>
<path d="M273.961 27.4235H248.256V52.9174H273.961V27.4235Z" fill="#E6E6E6"/>
<path d="M291.105 0H164.841V5.31996H291.105V0Z" fill="#FF8540"/>
<path d="M168.827 3.78776C169.422 3.78776 169.904 3.30965 169.904 2.71987C169.904 2.13009 169.422 1.65198 168.827 1.65198C168.232 1.65198 167.75 2.13009 167.75 2.71987C167.75 3.30965 168.232 3.78776 168.827 3.78776Z" fill="white"/>
<path d="M172.601 3.78776C173.195 3.78776 173.677 3.30965 173.677 2.71987C173.677 2.13009 173.195 1.65198 172.601 1.65198C172.006 1.65198 171.524 2.13009 171.524 2.71987C171.524 3.30965 172.006 3.78776 172.601 3.78776Z" fill="white"/>
<path d="M176.374 3.78776C176.969 3.78776 177.451 3.30965 177.451 2.71987C177.451 2.13009 176.969 1.65198 176.374 1.65198C175.78 1.65198 175.298 2.13009 175.298 2.71987C175.298 3.30965 175.78 3.78776 176.374 3.78776Z" fill="white"/>
<path d="M375.711 150.14H344.9V165.927H375.711V150.14Z" fill="#E6E6E6"/>
<path d="M375.711 206.67H344.9V222.457H375.711V206.67Z" fill="#E6E6E6"/>
<path d="M360.306 211.763C374.486 211.763 385.981 200.362 385.981 186.298C385.981 172.235 374.486 160.834 360.306 160.834C346.125 160.834 334.63 172.235 334.63 186.298C334.63 200.362 346.125 211.763 360.306 211.763Z" fill="#E6E6E6"/>
<path d="M360.306 206.16C371.366 206.16 380.333 197.268 380.333 186.298C380.333 175.329 371.366 166.437 360.306 166.437C349.245 166.437 340.279 175.329 340.279 186.298C340.279 197.268 349.245 206.16 360.306 206.16Z" fill="white"/>
<path d="M369.28 180.856H353.747V181.737H369.28V180.856Z" fill="#E2E2E2"/>
<path d="M377.765 184.088H353.732V184.969H377.765V184.088Z" fill="#FF8540"/>
<path d="M372.592 187.134H353.732V188.014H372.592V187.134Z" fill="#E2E2E2"/>
<path d="M364.826 190.178H353.732V191.059H364.826V190.178Z" fill="#E2E2E2"/>
<path d="M370.373 193.224H353.732V194.104H370.373V193.224Z" fill="#E2E2E2"/>
<path d="M348.479 180.603H346.704V182.364H348.479V180.603Z" fill="#E2E2E2"/>
<path d="M348.479 183.648H346.704V185.409H348.479V183.648Z" fill="#FF8540"/>
<path d="M348.479 186.693H346.704V188.454H348.479V186.693Z" fill="#E2E2E2"/>
<path d="M348.479 189.738H346.704V191.499H348.479V189.738Z" fill="#E2E2E2"/>
<path d="M348.479 192.783H346.704V194.544H348.479V192.783Z" fill="#E2E2E2"/>
</g>
<defs>
<clipPath id="clip0_5_225">
<rect width="456" height="362" fill="white"/>
</clipPath>
</defs>
</svg>
