<svg width="398" height="362" viewBox="0 0 398 362" fill="none" xmlns="http://www.w3.org/2000/svg">
<g clip-path="url(#clip0_5_199)">
<path d="M203.582 210.962L116.824 212.506C115.455 212.533 114.093 212.287 112.818 211.781C111.543 211.276 110.379 210.52 109.392 209.559C108.406 208.598 107.617 207.449 107.07 206.178C106.523 204.908 106.229 203.541 106.205 202.155C106.18 200.769 106.427 199.393 106.929 198.103C107.432 196.814 108.181 195.638 109.133 194.642C110.085 193.646 111.223 192.85 112.48 192.299C113.737 191.749 115.088 191.454 116.458 191.433L203.216 189.889C204.51 189.866 205.759 190.364 206.69 191.273C207.62 192.183 208.156 193.428 208.179 194.737L208.373 205.941C208.395 207.193 207.946 208.406 207.117 209.335C206.288 210.264 205.141 210.84 203.908 210.945C203.8 210.954 203.692 210.96 203.582 210.962Z" fill="#FF8540"/>
<path d="M186.827 213.825L115.65 217.113C115.01 217.143 114.37 217.044 113.768 216.824C113.166 216.604 112.612 216.265 112.139 215.828C111.666 215.392 111.283 214.865 111.011 214.278C110.739 213.691 110.584 213.056 110.555 212.408L109.801 195.713C109.742 194.405 110.199 193.128 111.071 192.161C111.943 191.194 113.159 190.617 114.451 190.558L185.629 187.27C186.269 187.24 186.908 187.339 187.511 187.559C188.113 187.779 188.667 188.118 189.14 188.555C189.613 188.991 189.996 189.518 190.268 190.105C190.54 190.692 190.695 191.327 190.724 191.975L191.477 208.67C191.534 209.945 191.1 211.193 190.267 212.151C189.435 213.11 188.268 213.706 187.011 213.814C186.951 213.819 186.889 213.823 186.827 213.825Z" fill="#2F2E41"/>
<path d="M66.4603 357.065V263.669C66.4618 262.361 66.9762 261.106 67.8906 260.181C68.805 259.256 70.0447 258.736 71.3379 258.734H82.4136C83.7067 258.736 84.9465 259.256 85.8609 260.181C86.7753 261.106 87.2896 262.361 87.2911 263.669V357.065C87.2896 358.373 86.7753 359.628 85.8609 360.553C84.9465 361.478 83.7067 361.999 82.4136 362H71.3379C70.0447 361.999 68.805 361.478 67.8906 360.553C66.9762 359.628 66.4618 358.373 66.4603 357.065Z" fill="#FF8540"/>
<path d="M95.5251 357.065V263.669C95.5265 262.361 96.0409 261.106 96.9553 260.181C97.8697 259.256 99.1095 258.736 100.403 258.734H111.478C112.771 258.736 114.011 259.256 114.926 260.181C115.84 261.106 116.354 262.361 116.356 263.669V357.065C116.354 358.373 115.84 359.628 114.926 360.553C114.011 361.478 112.771 361.999 111.478 362H100.403C99.1095 361.999 97.8697 361.478 96.9553 360.553C96.0409 359.628 95.5266 358.373 95.5251 357.065Z" fill="#FF8540"/>
<path d="M98.4176 161.265C119.554 161.265 136.688 143.93 136.688 122.545C136.688 101.16 119.554 83.824 98.4176 83.824C77.2816 83.824 60.1475 101.16 60.1475 122.545C60.1475 143.93 77.2816 161.265 98.4176 161.265Z" fill="#FF8540"/>
<path d="M119.133 135.765C120.364 135.356 121.494 134.685 122.447 133.797C123.079 133.163 123.566 132.397 123.874 131.552C124.182 130.708 124.304 129.805 124.231 128.908C124.191 128.269 124.006 127.648 123.689 127.093C123.372 126.538 122.933 126.065 122.406 125.711C121.038 124.823 119.207 124.82 117.343 125.651L117.414 110.535L115.913 110.528L115.83 128.298L116.987 127.562C118.328 126.71 120.243 126.111 121.596 126.989C121.93 127.221 122.207 127.528 122.405 127.886C122.603 128.244 122.717 128.644 122.737 129.053C122.788 129.722 122.696 130.393 122.467 131.022C122.238 131.651 121.878 132.223 121.411 132.698C119.754 134.3 117.336 134.801 114.579 135.248L114.817 136.748C116.281 136.551 117.726 136.222 119.133 135.765Z" fill="#2F2E41"/>
<path d="M132.885 109.771L124.871 110.842L125.068 112.347L133.081 111.277L132.885 109.771Z" fill="#2F2E41"/>
<path d="M107.591 113.15L99.5773 114.221L99.7738 115.726L107.787 114.655L107.591 113.15Z" fill="#2F2E41"/>
<path d="M17.2252 119.487L72.172 187.435C73.0388 188.506 73.6886 189.739 74.0842 191.065C74.4799 192.39 74.6136 193.781 74.4777 195.158C74.3419 196.535 73.9392 197.872 73.2926 199.092C72.646 200.312 71.7682 201.391 70.7094 202.267C69.6505 203.144 68.4314 203.801 67.1215 204.201C65.8117 204.6 64.4369 204.735 63.0756 204.597C61.7143 204.459 60.3932 204.051 59.1878 203.396C57.9824 202.741 56.9163 201.853 56.0505 200.781L1.10327 132.833C0.697617 132.332 0.393568 131.754 0.208509 131.134C0.0234505 130.513 -0.0390082 129.862 0.0247089 129.217C0.088426 128.572 0.27706 127.947 0.579851 127.375C0.882641 126.804 1.29365 126.299 1.78941 125.889L10.3613 118.793C11.3626 117.964 12.6482 117.572 13.9354 117.702C15.2226 117.832 16.406 118.474 17.2252 119.487Z" fill="#FF8540"/>
<path d="M35.5505 134.652L80.67 190.448C81.0756 190.949 81.3797 191.527 81.5647 192.147C81.7498 192.767 81.8122 193.419 81.7485 194.064C81.6848 194.708 81.4961 195.334 81.1934 195.905C80.8906 196.476 80.4796 196.982 79.9838 197.392L65.3425 209.512C64.8468 209.923 64.2761 210.23 63.6628 210.418C63.0496 210.605 62.4059 210.668 61.7686 210.603C61.1312 210.539 60.5126 210.348 59.9482 210.042C59.3837 209.735 58.8845 209.319 58.4789 208.818L13.3593 153.023C12.5415 152.009 12.1545 150.709 12.2832 149.407C12.4118 148.105 13.0456 146.908 14.0454 146.079L28.6869 133.958C29.6881 133.129 30.9737 132.737 32.2608 132.867C33.548 132.997 34.7313 133.639 35.5505 134.652Z" fill="#2F2E41"/>
<path d="M348.367 66.8224C347.815 65.497 346.892 64.3642 345.71 63.5645C344.529 62.7647 343.142 62.333 341.72 62.3228H209.041C207.134 62.3238 205.305 63.0908 203.957 64.4553C202.608 65.8197 201.85 67.67 201.849 69.5997V239.427C201.85 241.356 202.608 243.207 203.957 244.571C205.305 245.936 207.134 246.703 209.041 246.704H341.725C343.632 246.701 345.46 245.934 346.808 244.569C348.156 243.205 348.915 241.356 348.917 239.427V69.5997C348.92 68.6464 348.735 67.7021 348.372 66.8224H348.367ZM347.315 239.427C347.313 240.927 346.723 242.366 345.674 243.428C344.626 244.489 343.203 245.086 341.72 245.088H209.041C207.558 245.087 206.135 244.491 205.086 243.43C204.037 242.368 203.447 240.929 203.446 239.428V69.6006C203.448 68.0999 204.039 66.6612 205.087 65.6C206.136 64.5389 207.558 63.9418 209.041 63.9397H341.725C342.842 63.944 343.933 64.285 344.858 64.9193C345.783 65.5536 346.5 66.4523 346.918 67.5008C347 67.7097 347.07 67.9229 347.129 68.1394C347.256 68.6159 347.32 69.1072 347.32 69.6006L347.315 239.427Z" fill="#3F3D56"/>
<path d="M320.679 102.418H280.714C280.294 102.419 279.878 102.336 279.489 102.174C279.101 102.011 278.748 101.773 278.45 101.473C278.153 101.172 277.917 100.815 277.756 100.423C277.595 100.03 277.512 99.6087 277.512 99.1834C277.512 98.7582 277.595 98.3371 277.756 97.9443C277.917 97.5515 278.153 97.1946 278.45 96.8942C278.748 96.5937 279.101 96.3556 279.489 96.1933C279.878 96.031 280.294 95.9478 280.714 95.9485H320.679C321.099 95.9478 321.516 96.031 321.904 96.1933C322.293 96.3556 322.646 96.5937 322.943 96.8942C323.24 97.1946 323.476 97.5515 323.637 97.9443C323.798 98.3371 323.881 98.7582 323.881 99.1834C323.881 99.6087 323.798 100.03 323.637 100.423C323.476 100.815 323.24 101.172 322.943 101.473C322.646 101.773 322.293 102.011 321.904 102.174C321.516 102.336 321.099 102.419 320.679 102.418Z" fill="#3F3D56"/>
<path d="M320.679 119.401H280.714C280.294 119.402 279.878 119.319 279.489 119.156C279.101 118.994 278.748 118.756 278.45 118.455C278.153 118.155 277.917 117.798 277.756 117.405C277.595 117.012 277.512 116.591 277.512 116.166C277.512 115.741 277.595 115.32 277.756 114.927C277.917 114.534 278.153 114.177 278.45 113.877C278.748 113.576 279.101 113.338 279.489 113.176C279.878 113.014 280.294 112.93 280.714 112.931H320.679C321.099 112.93 321.516 113.014 321.904 113.176C322.293 113.338 322.646 113.576 322.943 113.877C323.24 114.177 323.476 114.534 323.637 114.927C323.798 115.32 323.881 115.741 323.881 116.166C323.881 116.591 323.798 117.012 323.637 117.405C323.476 117.798 323.24 118.155 322.943 118.455C322.646 118.756 322.293 118.994 321.904 119.156C321.516 119.319 321.099 119.402 320.679 119.401Z" fill="#3F3D56"/>
<path d="M260.209 129.071H231.003C230.049 129.07 229.135 128.686 228.46 128.004C227.786 127.322 227.407 126.397 227.406 125.432V90.5606C227.407 89.5957 227.786 88.6705 228.46 87.9882C229.135 87.3059 230.049 86.9222 231.003 86.9211H260.209C261.162 86.9222 262.077 87.3059 262.751 87.9882C263.425 88.6705 263.805 89.5957 263.806 90.5606V125.432C263.805 126.397 263.425 127.322 262.751 128.004C262.077 128.686 261.162 129.07 260.209 129.071Z" fill="#FF8540"/>
<path d="M320.402 154.175H230.082C229.234 154.175 228.42 153.835 227.821 153.228C227.221 152.621 226.884 151.798 226.884 150.94C226.884 150.083 227.221 149.26 227.821 148.653C228.42 148.046 229.234 147.706 230.082 147.706H320.402C321.25 147.706 322.063 148.046 322.662 148.653C323.262 149.26 323.599 150.083 323.599 150.94C323.599 151.798 323.262 152.621 322.662 153.228C322.063 153.835 321.25 154.175 320.402 154.175Z" fill="#CCCCCC"/>
<path d="M320.402 171.158H230.082C229.235 171.157 228.423 170.815 227.824 170.209C227.225 169.602 226.889 168.78 226.889 167.923C226.889 167.066 227.225 166.244 227.824 165.638C228.423 165.031 229.235 164.69 230.082 164.688H320.402C320.822 164.688 321.238 164.771 321.627 164.933C322.015 165.095 322.368 165.334 322.666 165.634C322.963 165.934 323.199 166.291 323.36 166.684C323.521 167.077 323.604 167.498 323.604 167.923C323.604 168.348 323.521 168.769 323.36 169.162C323.199 169.555 322.963 169.912 322.666 170.212C322.368 170.513 322.015 170.751 321.627 170.913C321.238 171.076 320.822 171.159 320.402 171.158Z" fill="#CCCCCC"/>
<path d="M320.402 188.141H230.082C229.235 188.139 228.423 187.798 227.824 187.192C227.225 186.585 226.889 185.763 226.889 184.906C226.889 184.049 227.225 183.227 227.824 182.62C228.423 182.014 229.235 181.672 230.082 181.671H320.402C320.822 181.67 321.238 181.753 321.627 181.916C322.015 182.078 322.368 182.316 322.666 182.617C322.963 182.917 323.199 183.274 323.36 183.667C323.521 184.06 323.604 184.481 323.604 184.906C323.604 185.331 323.521 185.752 323.36 186.145C323.199 186.538 322.963 186.895 322.666 187.195C322.368 187.496 322.015 187.734 321.627 187.896C321.238 188.058 320.822 188.141 320.402 188.141Z" fill="#CCCCCC"/>
<path d="M320.402 205.124H230.082C229.235 205.122 228.423 204.781 227.824 204.174C227.225 203.568 226.889 202.746 226.889 201.889C226.889 201.032 227.225 200.21 227.824 199.603C228.423 198.997 229.235 198.655 230.082 198.654H320.402C320.822 198.653 321.238 198.736 321.627 198.899C322.015 199.061 322.368 199.299 322.666 199.6C322.963 199.9 323.199 200.257 323.36 200.65C323.521 201.042 323.604 201.464 323.604 201.889C323.604 202.314 323.521 202.735 323.36 203.128C323.199 203.521 322.963 203.878 322.666 204.178C322.368 204.478 322.015 204.717 321.627 204.879C321.238 205.041 320.822 205.124 320.402 205.124Z" fill="#CCCCCC"/>
<path d="M320.402 222.106H230.082C229.235 222.105 228.423 221.764 227.824 221.157C227.225 220.551 226.889 219.729 226.889 218.871C226.889 218.014 227.225 217.192 227.824 216.586C228.423 215.979 229.235 215.638 230.082 215.636H320.402C320.822 215.636 321.238 215.719 321.627 215.881C322.015 216.044 322.368 216.282 322.666 216.582C322.963 216.883 323.199 217.239 323.36 217.632C323.521 218.025 323.604 218.446 323.604 218.871C323.604 219.297 323.521 219.718 323.36 220.111C323.199 220.503 322.963 220.86 322.666 221.161C322.368 221.461 322.015 221.699 321.627 221.862C321.238 222.024 320.822 222.107 320.402 222.106Z" fill="#CCCCCC"/>
<path d="M352.228 92.6213C377.507 92.6213 398 71.8873 398 46.3106C398 20.734 377.507 0 352.228 0C326.949 0 306.457 20.734 306.457 46.3106C306.457 71.8873 326.949 92.6213 352.228 92.6213Z" fill="#FF8540"/>
<path d="M351.342 78.1871C354.317 78.1871 356.728 75.7475 356.728 72.738C356.728 69.7285 354.317 67.2888 351.342 67.2888C348.368 67.2888 345.956 69.7285 345.956 72.738C345.956 75.7475 348.368 78.1871 351.342 78.1871Z" fill="white"/>
<path d="M350.765 15.8776C346.705 15.9184 342.821 17.5606 339.939 20.4548C337.058 23.349 335.406 27.2667 335.336 31.3741C335.335 31.4528 335.335 32.0056 335.335 32.7286C335.335 33.7888 335.751 34.8055 336.492 35.5552C337.233 36.3048 338.238 36.7261 339.286 36.7262C340.334 36.726 341.34 36.3043 342.081 35.5539C342.822 34.8036 343.239 33.786 343.238 32.7251V32.7225C343.238 32.2306 343.238 31.8902 343.238 31.8693C343.238 30.5532 343.576 29.2597 344.22 28.1161C344.863 26.9724 345.79 26.018 346.909 25.3467C348.028 24.6754 349.3 24.3103 350.601 24.2874C351.901 24.2645 353.185 24.5845 354.327 25.216C355.468 25.8475 356.427 26.7687 357.11 27.889C357.792 29.0092 358.175 30.29 358.22 31.6053C358.265 32.9206 357.971 34.2251 357.366 35.3905C356.762 36.5559 355.868 37.542 354.773 38.2519L354.774 38.2536C354.774 38.2536 349.151 41.9163 347.437 46.9409L347.438 46.9412C347.137 47.9706 346.984 49.0386 346.984 50.1122C346.984 50.5535 347.01 54.4148 347.06 57.5488C347.077 58.6302 347.514 59.6613 348.276 60.4197C349.038 61.1781 350.064 61.6031 351.133 61.6028C351.668 61.6028 352.198 61.4961 352.692 61.289C353.186 61.0818 353.635 60.7782 354.014 60.3954C354.392 60.0126 354.692 59.5582 354.897 59.0581C355.101 58.558 355.207 58.022 355.207 57.4807L355.207 57.4554C355.189 54.5853 355.18 51.2432 355.18 51.0006C355.18 47.9154 358.122 44.8413 360.538 42.8367C363.335 40.5447 365.301 37.3782 366.127 33.8338C366.305 33.1032 366.403 32.3551 366.42 31.6028C366.42 29.5377 366.018 27.4928 365.237 25.5849C364.456 23.6769 363.311 21.9434 361.868 20.4831C360.424 19.0229 358.711 17.8645 356.825 17.0742C354.94 16.284 352.919 15.8772 350.877 15.8772C350.84 15.8772 350.803 15.8773 350.765 15.8776Z" fill="white"/>
<path d="M88.8235 105.413C95.6754 100.855 104.287 102.906 111.902 103.501C118.784 104.039 126.94 103.509 131.78 97.8206C136.815 91.9027 136.394 83.1161 132.225 76.8567C128.122 70.6955 121.311 66.8052 114.105 65.7794C110.112 65.1876 106.042 65.4432 102.152 66.53C98.2628 67.6167 94.6395 69.5108 91.513 72.0918L93.962 73.1182C92.5348 59.3136 82.5031 46.8342 69.0439 43.4491C55.4259 40.0242 40.1969 45.8695 32.9316 58.1545C25.769 70.2657 26.6175 87.1655 36.9272 97.2301C41.8783 102.064 48.6132 104.526 55.4481 103.212C61.7516 102 67.3525 97.3509 68.5321 90.7854C69.6256 84.6991 67.2368 77.786 61.3856 75.128C59.7845 74.3725 58.0348 73.9948 56.2684 74.0234C54.502 74.0519 52.7651 74.486 51.1887 75.2928C49.761 76.1056 48.5546 77.2637 47.6775 78.6636C46.8004 80.0635 46.2799 81.6615 46.1626 83.3148C46.0535 84.9153 46.3758 86.5158 47.095 87.9456C47.9073 89.6232 50.3826 88.1535 49.5725 86.4804C49.0492 85.2503 48.9005 83.8902 49.1454 82.574C49.3902 81.2579 50.0175 80.0456 50.947 79.0922C53.0739 76.8442 56.4314 76.4708 59.2576 77.3899C64.429 79.0717 66.7123 85.0741 65.7378 90.1661C64.6463 95.8697 59.8338 99.5347 54.3542 100.473C48.3951 101.494 42.5839 98.9477 38.4473 94.6659C29.7842 85.6986 29.0346 71.2557 34.8785 60.5532C40.8069 49.6959 53.4529 43.8658 65.4984 45.687C77.4095 47.4879 87.219 56.9668 90.2756 68.6546C90.6612 70.1189 90.9344 71.6112 91.0928 73.1181C91.1025 73.4007 91.1924 73.6744 91.3517 73.9067C91.511 74.139 91.7329 74.32 91.9911 74.4282C92.2492 74.5364 92.5327 74.5672 92.8076 74.5169C93.0826 74.4666 93.3374 74.3373 93.5418 74.1445C103.72 65.592 120.648 66.5093 128.994 77.2685C133.087 82.545 134.293 90.7387 129.513 96.039C124.962 101.086 117.405 101.091 111.19 100.538C103.238 99.8311 94.4976 98.1687 87.3753 102.906C85.8387 103.928 87.2745 106.443 88.8235 105.413Z" fill="#2F2E41"/>
<path d="M119.683 296.238H62.2984C61.1573 296.237 60.0633 295.778 59.2564 294.962C58.4496 294.145 57.9958 293.038 57.9945 291.884V272.53C57.9958 271.376 58.4496 270.269 59.2564 269.453C60.0633 268.636 61.1573 268.177 62.2984 268.176H119.683C120.824 268.177 121.918 268.636 122.725 269.453C123.532 270.269 123.986 271.376 123.987 272.53V291.884C123.986 293.038 123.532 294.145 122.725 294.962C121.918 295.778 120.824 296.237 119.683 296.238Z" fill="#2F2E41"/>
<path d="M121.644 200.821C119.847 191.524 112.87 184.162 103.813 181.135C107.083 180.07 109.163 178.494 109.163 176.73C109.163 173.524 102.311 170.924 93.8601 170.924C85.4087 170.924 78.5574 173.524 78.5574 176.73C78.5574 178.519 80.6934 180.118 84.047 181.183C70.1618 185.372 60.0836 197.598 60.0836 211.995C60.0836 211.995 55.8094 239.718 52.4535 261.878C50.3066 276.056 62.0374 288.727 77.3042 288.727H130.996C134.513 288.727 137.374 286.044 137.374 282.745C137.374 282.745 127.481 231.019 121.644 200.821Z" fill="#2F2E41"/>
</g>
<defs>
<clipPath id="clip0_5_199">
<rect width="398" height="362" fill="white"/>
</clipPath>
</defs>
</svg>
